<?xml version="1.0" encoding="utf-8"?>
<!-- Generator: Adobe Illustrator 26.5.2, SVG Export Plug-In . SVG Version: 6.00 Build 0)  -->
<svg version="1.1" id="レイヤー_1" xmlns="http://www.w3.org/2000/svg" xmlns:xlink="http://www.w3.org/1999/xlink" x="0px"
	 y="0px" viewBox="0 0 500 93" style="enable-background:new 0 0 500 93;" xml:space="preserve">
<style type="text/css">
	.st0{fill:#3ECCB6;}
	.st1{fill:#FFFFFF;}
</style>
<rect y="0.71" class="st0" width="500" height="91.79"/>
<rect y="78.26" class="st1" width="500" height="14.74"/>
<g>
	<path class="st1" d="M43.08,43.04l18.51,1.11c-0.87,8.09-3.86,14.29-8.97,18.61c-5.11,4.32-11.38,6.48-18.83,6.48
		c-8.96,0-16.19-2.96-21.7-8.89c-5.51-5.93-8.27-14.12-8.27-24.56c0-10.34,2.61-18.69,7.83-25.04c5.22-6.35,12.5-9.52,21.85-9.52
		c8.73,0,15.44,2.42,20.13,7.25c4.69,4.83,7.34,11.25,7.95,19.24l-18.9,1.02c0-4.41-0.85-7.6-2.54-9.57
		c-1.69-1.97-3.68-2.95-5.97-2.95c-6.38,0-9.57,6.41-9.57,19.24c0,7.19,0.83,12.07,2.49,14.65c1.66,2.58,3.99,3.87,6.99,3.87
		C39.44,53.96,42.44,50.32,43.08,43.04z"/>
	<path class="st1" d="M84.34,2.24v65.98h-19V2.24H84.34z"/>
	<path class="st1" d="M115.55,69.24c-8.15,0-14.63-2.54-19.43-7.61c-4.8-5.08-7.2-11.03-7.2-17.86c0-7.35,2.51-13.47,7.52-18.37
		c5.01-4.9,11.53-7.35,19.55-7.35c8.09,0,14.59,2.42,19.51,7.25c4.91,4.83,7.37,10.89,7.37,18.18c0,7.35-2.49,13.48-7.47,18.39
		C130.41,66.78,123.8,69.24,115.55,69.24z M115.84,57.54c3,0,4.83-1.55,5.49-4.66c0.66-3.11,0.99-6.36,0.99-9.74
		c0-4.61-0.47-7.93-1.4-9.96c-0.94-2.03-2.61-3.05-5.03-3.05c-2.22,0-3.85,1.05-4.88,3.14c-1.03,2.1-1.55,5.54-1.55,10.34
		c0,5.64,0.53,9.37,1.6,11.19C112.12,56.63,113.71,57.54,115.84,57.54z"/>
	<path class="st1" d="M177.74,19.06v12.52h-9.81v18.13c0,2.48,0.47,3.96,1.4,4.42c0.93,0.47,1.9,0.7,2.9,0.7
		c1.55,0,3.38-0.27,5.51-0.82v13.73c-3.8,0.74-7.54,1.11-11.21,1.11c-5.93,0-10.29-1.27-13.08-3.82c-2.79-2.55-4.18-6.61-4.18-12.18
		l0.05-5.75V31.58h-7.35V19.06h7.35l0.29-16l18.32-0.29v16.29H177.74z"/>
	<path class="st1" d="M229.49,68.22h-19.29V38.64c0-2.71-0.3-4.57-0.89-5.58c-0.59-1.02-1.74-1.52-3.44-1.52
		c-1.31,0-2.46,0.4-3.44,1.18c-0.98,0.79-1.55,1.6-1.71,2.44c-0.16,0.84-0.24,2.59-0.24,5.27v27.8H181.2V2.24h19.29v22.62
		c3.48-4.54,8.02-6.82,13.63-6.82c2.84,0,5.32,0.49,7.47,1.47c2.14,0.98,3.79,2.25,4.95,3.79s1.94,3.05,2.34,4.5
		c0.4,1.45,0.6,4.25,0.6,8.41V68.22z"/>
	<path class="st1" d="M257.51,35.69v15.18H233V35.69H257.51z"/>
	<path class="st1" d="M287.65,18.05v50.18h-19.19V18.05h-13.68V2.24h46.55v15.81H287.65z"/>
	<path class="st1" d="M318.86,68.22h-18.46V19.06h16.05v10.15c1.84-7.38,6.11-11.07,12.81-11.07c0.68,0,1.61,0.06,2.8,0.19V35.5
		c-1.35-0.32-2.56-0.48-3.62-0.48c-6.38,0-9.57,3.56-9.57,10.68V68.22z"/>
	<path class="st1" d="M384.72,68.22h-18.37c-0.45-2.09-0.68-4.38-0.68-6.86c-3.48,5.25-8.75,7.88-15.81,7.88
		c-5.8,0-10.14-1.48-13.03-4.45c-2.88-2.96-4.33-6.36-4.33-10.2c0-5.19,2.36-9.39,7.08-12.59c4.72-3.21,13.09-5.13,25.11-5.78v-1.11
		c0-2.16-0.49-3.59-1.47-4.3c-0.98-0.71-2.42-1.06-4.33-1.06c-4.45,0-6.93,1.79-7.44,5.37l-17.6-1.64
		c2.51-10.28,11.07-15.42,25.67-15.42c3.96,0,7.6,0.4,10.92,1.18c3.32,0.79,5.95,2.02,7.88,3.7c1.93,1.68,3.23,3.45,3.89,5.32
		c0.66,1.87,0.99,5.46,0.99,10.78v19.63C383.23,62.39,383.73,65.58,384.72,68.22z M364.71,45.21c-8.22,0.87-12.33,3.5-12.33,7.88
		c0,2.97,1.63,4.45,4.88,4.45c2.06,0,3.82-0.61,5.27-1.84c1.45-1.22,2.18-3.93,2.18-8.12V45.21z"/>
	<path class="st1" d="M438.26,68.22h-18.08V61.7c-2.68,5.03-7.09,7.54-13.25,7.54c-5.67,0-10.27-2.22-13.8-6.65
		c-3.53-4.43-5.29-10.87-5.29-19.31c0-7.9,1.77-14.16,5.32-18.8c3.54-4.64,8.23-6.96,14.07-6.96c4.87,0,8.88,1.85,12.04,5.56V2.24
		h19V68.22z M419.27,36.61c0-4.41-1.82-6.62-5.46-6.62c-2.55,0-4.21,1.4-5,4.21c-0.79,2.8-1.18,6.24-1.18,10.3
		c0,7.96,2.03,11.94,6.09,11.94c1.55,0,2.86-0.63,3.94-1.89c1.08-1.26,1.62-3.17,1.62-5.75V36.61z"/>
	<path class="st1" d="M477.93,50.58l17.98,1.21c-1.06,4.83-3.78,8.95-8.15,12.35c-4.37,3.4-10.27,5.1-17.72,5.1
		c-8.28,0-14.89-2.39-19.82-7.18c-4.93-4.79-7.4-10.72-7.4-17.81c0-7.35,2.43-13.55,7.3-18.61c4.87-5.06,11.36-7.59,19.48-7.59
		c7.86,0,14.22,2.39,19.07,7.15c4.85,4.77,7.28,11.26,7.28,19.48c0,0.68-0.02,1.61-0.05,2.8h-32.92c0.06,3.09,0.61,5.39,1.64,6.89
		c1.03,1.5,3,2.25,5.9,2.25C474.72,56.62,477.19,54.61,477.93,50.58z M476.62,37.82c-0.03-3.32-0.7-5.55-2-6.69
		c-1.3-1.14-2.92-1.72-4.84-1.72c-4.56,0-6.84,2.8-6.84,8.41H476.62z"/>
</g>
</svg>
