<?xml version="1.0" encoding="utf-8"?>
<!-- Generator: Adobe Illustrator 26.5.2, SVG Export Plug-In . SVG Version: 6.00 Build 0)  -->
<svg version="1.1" id="レイヤー_1" xmlns="http://www.w3.org/2000/svg" xmlns:xlink="http://www.w3.org/1999/xlink" x="0px"
	 y="0px" viewBox="0 0 500 500" style="enable-background:new 0 0 500 500;" xml:space="preserve">
<style type="text/css">
	.st0{fill:#3ECCB6;}
	.st1{fill:none;stroke:#FFA230;stroke-width:18;stroke-miterlimit:10;}
</style>
<path class="st0" d="M306.1,273.29l101.22,5.07c-4.76,36.92-21.1,65.23-49.02,84.94c-27.93,19.71-62.24,29.56-102.93,29.56
	c-48.98,0-88.53-13.53-118.66-40.6c-30.13-27.06-45.19-64.42-45.19-112.08c0-47.22,14.27-85.31,42.81-114.29
	c28.54-28.98,68.36-43.46,119.45-43.46c47.74,0,84.44,11.03,110.07,33.1c25.64,22.06,40.12,51.34,43.47,87.81l-103.33,4.63
	c0-20.15-4.63-34.71-13.88-43.69c-9.25-8.97-20.13-13.46-32.64-13.46c-34.88,0-52.33,29.27-52.33,87.81
	c0,32.8,4.53,55.09,13.61,66.85c9.07,11.77,21.8,17.65,38.19,17.65C286.19,323.16,302.57,306.54,306.1,273.29z"/>
<line class="st1" x1="92.28" y1="402" x2="407.69" y2="402"/>
</svg>
